# xmcd
#
# Track frame offsets: 
#        150
#        15811
#        27444
#        43889
#        60405
#        78228
#        101187
#        117365
#        132251
#        148066
#        165714
#        183810
#        199134
#
# Disc length: 2928 seconds
#
# Revision: 1
# Processed by: cddbd v1.5.2PL0 Copyright (c) Steve Scherf et al.
# Submitted via: ExactAudioCopy v0.99pb5
#
DISCID=ab0b6e0d
DTITLE=BB&G - Bellamy Brothers and Gölä - The Greatest Hits Sessions
DYEAR=2010
DGENRE=Country
TTITLE0=Let Your Love Flow
TTITLE1=Up And Away
TTITLE2=Kids Of The Baby Boom
TTITLE3=Guilty Of The Crime
TTITLE4=Swan
TTITLE5=She's Awesome
TTITLE6=I Need More Of You
TTITLE7=No More Tears
TTITLE8=Over The Line
TTITLE9=If I Said You Have A Beautiful Body (Wouldnt You Hold It Again
TTITLE9=st Me)
TTITLE10=Wilder Days
TTITLE11=Some Broken Hearts
TTITLE12=I Must Be In Switzerland
EXTD=
EXTT0=
EXTT1=
EXTT2=
EXTT3=
EXTT4=
EXTT5=
EXTT6=
EXTT7=
EXTT8=
EXTT9=
EXTT10=
EXTT11=
EXTT12=
PLAYORDER=
